<svg xmlns="http://www.w3.org/2000/svg" width="300" height="141" viewBox="0 0 1000 465" version="1"><g fill="#5f68c3"><path d="M414.5 17.71C436.03 7.82 459.49 2.58 483.04.68 494.02.64 505 .83 515.98.59c35.59 2.71 71.5 13.3 100.01 35.38 11.04 9.09 21.41 19.65 27.77 32.61-41.38-9.04-83.44-15.82-125.84-17.07-4.87-.33-10.87 2.98-10.76 8.4.13 47.72 0 95.43.02 143.15-4.75.2-9.49.1-14.24.19-.01-48.11.05-96.22.22-144.32-.58-5.07-6.38-7.95-11.07-7.4-42.47 1.44-84.69 7.92-126.07 17.44 3.94-8.23 9.54-15.54 15.97-21.97 11.93-12.6 26.78-22.12 42.51-29.29z"/><path d="M349.86 84.76c36.02-7.05 72.51-12.14 109.18-14.13 5.64-.37 12.23 2.73 13.82 8.52 1.48 8.63-.17 17.41-1.85 25.89-6.38 31.02-12.77 62.03-19.11 93.06-25.14-5.72-49.69-15.91-69.81-32.27-11.31-9.43-21.35-20.76-27.58-34.21-6.88-14.46-8.77-31.34-4.65-46.86z"/><path d="M535.54 71.54c3.31-1.42 6.97-.85 10.46-.68 33.89 2.03 67.52 7 100.91 12.99 1.18.4 3.23.24 3.44 1.89 4.04 15.96 1.66 33.28-5.81 47.88-7.56 14.93-19.49 27.27-32.92 37.07-13.22 9.23-27.77 16.59-43.08 21.68-6.5 2.33-13.24 3.84-19.81 5.9-5.15-26.18-10.68-52.29-16.03-78.43-2.33-12.85-6.42-25.69-5.24-38.9.18-4.56 4.06-7.92 8.08-9.4z"/><path d="M297.49 255.4c32.57-.43 65.16-.09 97.73-.16.04 9.81.16 19.62-.07 29.43-9.44.01-18.88-.02-28.32-.07-.16 23.9-.05 47.8-.07 71.7-13.65-.02-27.31-.03-40.96 0 .44-23.97.07-47.94.23-71.91-9.52.6-19.06.08-28.59.31.18-9.76.1-19.53.05-29.3z"/><path d="M422.94 257.09c.39-2.52 3.19-1.77 4.99-1.88 12.86.16 25.73-.27 38.58.16 12.87 33.6 25.89 67.14 38.54 100.83-13.23.22-26.45-.11-39.68.24-6.74-19.98-13.53-39.93-20.38-59.87-6.62 19.92-13.34 39.81-20.3 59.6-13.26.31-26.52-.15-39.77.29 12.66-33.13 25.29-66.27 38.02-99.37z"/><path d="M494.95 255.24c32.52-.03 65.05-.04 97.57 0 .25 9.74.01 19.49.16 29.23-9.51.38-19.02.07-28.53.2-.02 23.92-.12 47.84.09 71.76-13.62-.34-27.24-.01-40.85-.22.11-23.85.05-47.69.05-71.54-9.57-.04-19.13-.01-28.7.03.35-9.82.07-19.64.21-29.46z"/><path d="M621.1 255.2c14.24.03 28.47-.06 42.71.07 12.96 33.61 25.96 67.22 38.57 100.96-13.18.16-26.37-.11-39.55.18-6.86-19.73-13.37-39.59-20.36-59.27-7.13 19.57-13.4 39.45-20.36 59.08-13.31.24-26.62-.22-39.92.27 13.06-33.73 25.83-67.57 38.91-101.29z"/><path d="M236.64 417.67c8.05-5.38 18.64-5.48 27.58-2.42-.3 2.59-.98 5.11-1.85 7.57-6.52-1.94-14.34-2.93-20.16 1.39-7.86 6.04-8.26 18.63-2.81 26.39 5.41 6.64 15.39 6.44 22.81 3.78.84 2.47 1.46 5 1.98 7.56-5.49 2.07-11.43 1.6-17.18 1.57-8.49-.14-16.46-6.03-19.33-13.98-4.13-10.99-1.27-25.2 8.96-31.86z"/><path d="M284.49 413.8c7.87-1.86 16.85.38 22.28 6.56 5.51 6.08 6.83 14.86 5.81 22.76-.96 7.75-5.34 15.52-12.7 18.77-4.66 1.92-9.93 3.34-14.93 1.98-6.46-1.32-12.46-5.44-15.41-11.42-4.71-9.6-4.13-21.89 2.34-30.55 3.03-4.14 7.63-6.97 12.61-8.1m.93 7.83c-4.79 1.67-7.57 6.57-8.44 11.33-1.45 6.97-.55 15.15 4.65 20.43 5.12 4.98 14.61 3.68 18.15-2.57 4.27-7.32 4.25-17.16-.13-24.43-2.72-4.89-9.15-6.53-14.23-4.76z"/><path d="M375.96 415.06c6.76-2.9 14.63-2.14 21.33.56-.78 2.63-1.54 5.26-2.23 7.92-4.54-2.37-10.07-3.41-14.93-1.42-3.31 1.39-3.89 6.6-.9 8.65 5.15 3.78 12.19 4.52 16.58 9.44 5.61 5.87 3.84 16.45-2.88 20.71-4.61 3.37-10.61 2.5-15.96 2.64-3.58.19-6.95-1.15-10.09-2.7.66-2.54 1.31-5.08 1.98-7.61 5.55 2.34 12.21 4.31 17.96 1.55 4.22-2.15 3.34-8.95-.82-10.65-6-3.02-13.57-4.69-17.05-11.04-3.46-6.69.34-15.14 7.01-18.05z"/><path d="M619.67 417.63c8.08-5.4 18.6-5.34 27.59-2.43-.45 2.56-1.11 5.09-1.81 7.6-6.55-1.89-14.39-2.95-20.23 1.39-5.64 3.93-7.03 11.45-6.23 17.87.62 5.4 3.9 10.8 9.15 12.77 5.54 2.08 11.73 1.32 17.27-.41.57 2.53 1.17 5.06 1.75 7.59-5.2 1.85-10.76 1.55-16.18 1.54-8.37.25-16.54-5.08-19.81-12.77-4.93-11.17-2.17-26.28 8.5-33.15z"/><path d="M718.86 414.57c6.49-2.36 13.79-1.47 20.11 1.04-.79 2.65-1.58 5.29-2.29 7.96-4.45-2.25-9.86-3.45-14.64-1.6-3.54 1.49-4.31 6.84-1.03 9.02 6.17 4.05 15.09 4.97 18.58 12.33 4.05 8.14-1.87 18.44-10.62 19.9-6.89.54-14.26 1.14-20.56-2.31.75-2.59 1.49-5.18 2.26-7.76 5.26 2.54 11.51 4.11 17.2 2.01 3.7-1.42 4.53-7.02 1.64-9.62-3.08-2.69-7.22-3.53-10.78-5.36-4.25-2-8.32-5.47-9.17-10.32-1.39-6.52 3.19-13.17 9.3-15.29z"/><path d="M896.11 419.12c8.19-6.83 19.83-6.96 29.64-4.07-.52 2.66-1.15 5.31-1.84 7.94-6.18-2.12-13.48-2.96-19.29.61-8.59 5.31-9.35 18.14-4.37 26.17 5.16 7.61 15.89 7.23 23.7 4.64.51 2.47 1.04 4.95 1.54 7.44-5.51 2.35-11.6 1.63-17.42 1.64-8.94-.15-16.91-6.96-19.49-15.35-2.96-10-.88-22.2 7.53-29.02z"/><path d="M976.38 415.26c6.76-3.17 14.85-2.4 21.63.35-.75 2.65-1.5 5.3-2.19 7.97-4.49-2.32-9.94-3.42-14.79-1.56-3.35 1.44-4.15 6.79-.98 8.86 5.45 3.74 12.74 4.61 17.09 9.99 2.65 2.68 2.2 6.67 2.18 10.12.23 4.54-3.1 8.37-6.77 10.58-4.39 2.64-9.73 1.83-14.6 1.98-3.64.17-7.11-1.03-10.27-2.69.63-2.52 1.26-5.04 1.89-7.55 5.49 2.19 11.82 4.02 17.59 1.81 4.05-1.92 4.22-8.26.36-10.49-5.83-3.43-13.46-4.59-17.36-10.71-4.16-6.55-.47-15.48 6.22-18.66z"/><path d="M.2 413.53c16.28 0 32.56 0 48.84.01-.11 4.9-.12 9.8-.08 14.71-4.73.26-9.46.25-14.19.22-.05 11.98-.02 23.97.01 35.96-6.88-.55-13.78-.19-20.66-.29.29-11.95-.02-23.91.21-35.86-4.77.22-9.55.21-14.33.18v-1.91c.15-4.34.17-8.68.2-13.02z"/><path d="M43.56 464.05c6.45-16.86 12.75-33.78 19.51-50.52 7.05.08 14.1-.11 21.15.13 6.66 16.73 13.08 33.57 19.31 50.47-6.62.06-13.24-.2-19.84.33-3.27-10.12-7.1-20.06-10.06-30.28-3.14 9.98-6.55 19.88-10.05 29.75-6.66.58-13.35.08-20.02.12z"/><path d="M98.19 413.65c16.31-.2 32.62-.1 48.93-.04-.04 4.9-.08 9.81.06 14.72-4.73.15-9.47.14-14.2.18-.04 11.67.06 23.35-.09 35.03-6.78-.04-13.55-.02-20.32 0-.09-11.72-.18-23.44.02-35.16-4.8.12-9.6.06-14.4.14.09-4.96.07-9.92 0-14.87z"/><path d="M142.05 463.5c6.16-16.71 12.64-33.3 19.01-49.93 7.15.03 14.31-.25 21.46.18 6.36 16.58 12.88 33.1 18.99 49.78-6.64-.02-13.28-.03-19.92.01-3.29-9.57-6.45-19.19-9.91-28.7-3.21 9.56-6.41 19.12-9.67 28.66h-19.96z"/><path d="M320.04 414.14c3.53-.17 7.06-.18 10.6-.09 6.96 11.87 14.68 23.33 20.46 35.85-.74-11.94-.51-23.91-.54-35.87 2.84-.03 5.68-.04 8.52 0 .61 16.38-.01 32.8.34 49.19-3.27.08-6.54.12-9.81.13-7.04-12.93-15.8-24.99-21.39-38.66.86 12.87.66 25.78.49 38.67-2.89-.02-5.79-.02-8.68.01.02-16.41.05-32.82.01-49.23z"/><path d="M406.65 414.03c3.08-.04 6.17-.03 9.25.04.42 10.3-.08 20.62.3 30.93.22 3.78 1.36 8.03 4.75 10.19 3.66 2.03 8.8 1.62 11.79-1.44 2.77-3.21 3.04-7.68 3.11-11.72-.01-9.3-.05-18.6-.02-27.91 3.13-.12 6.27-.14 9.42-.09.09 9.65.1 19.29.05 28.94-.08 6.55-2.16 13.67-7.62 17.74-6.96 4.67-16.74 4.89-23.72.14-5.32-3.82-7.15-10.67-7.32-16.9-.14-9.97-.01-19.95.01-29.92z"/><path d="M454.94 414.15c3.14-.16 6.29-.18 9.44-.13.07 13.76.01 27.52.04 41.28 6.64 0 13.29-.03 19.93.04.08 2.59.14 5.19.17 7.78-9.87.43-19.74.06-29.61.25.08-16.41.04-32.81.03-49.22z"/><path d="M478.96 414.2c12.5-.37 25.01-.19 37.51-.16.02 2.7.02 5.41-.01 8.12-4.73-.18-9.45-.11-14.17-.15.24 13.71.02 27.44.13 41.16-3.23.14-6.46.21-9.69.24.44-13.8.03-27.62.27-41.42-4.65.06-9.3.02-13.94.11-.06-2.64-.09-5.27-.1-7.9z"/><path d="M528.46 414.3c3.94-.53 7.91-.37 11.86-.1 5.19 16.41 10.69 32.71 15.86 49.13h-10.12c-1.45-4.64-2.89-9.28-4.32-13.93-5.05.21-10.11.17-15.16.12-1.39 4.55-2.77 9.11-4.07 13.69-3.35.07-6.71.15-10.06.21 5.59-16.29 10.55-32.79 16.01-49.12m-.14 28c3.88-.04 7.77-.04 11.67-.04-1.99-6.63-4.21-13.19-6-19.88-1.64 6.71-3.81 13.27-5.67 19.92z"/><path d="M562.47 414.15c3.45-.09 6.94-.41 10.39.07 7.43 11.76 15.04 23.56 20.79 36.29-1.09-12.14-.72-24.32-.68-36.48 2.84-.03 5.68-.02 8.52.04.43 16.35.08 32.72.22 49.08-3.22.17-6.43.23-9.64.23-7.18-12.48-15.09-24.57-21.31-37.58.52 12.52.54 25.06.44 37.59-2.92-.05-5.84-.06-8.75-.03.03-16.4.02-32.8.02-49.21z"/><path d="M649.79 414.07c3.42-.12 6.85-.13 10.27.04 3.8 6.96 6.85 14.29 10.11 21.51 3.53-7.08 6.56-14.4 10.2-21.43 3.42-.28 6.86-.25 10.3-.1-4.63 9.06-10.13 17.63-14.96 26.57-1.21 1.88-.99 4.18-1.06 6.32-.04 5.47.07 10.95-.04 16.43-3.28-.08-6.56-.1-9.82.01.31-7 .65-14.13-.09-21.09-4.64-9.59-10.3-18.65-14.91-28.26z"/><path d="M748.36 414.04c9.53-.01 19.06-.13 28.59.04.24 2.68.33 5.37.4 8.07-6.54-.52-13.11-.15-19.66-.28.08 3.99.08 7.99.07 11.99 6.11-.01 12.22.03 18.34.04.05 2.68.07 5.36.06 8.04-6.16-.44-12.32-.15-18.48-.26.11 4.56.09 9.12.05 13.68 6.79.23 13.58.14 20.38.1.17 2.55.25 5.11.28 7.68-10.07.42-20.15.02-30.22.26.31-16.45.03-32.9.19-49.36z"/><path d="M785.58 414.77c6.04-1.18 12.25-1.24 18.38-.94 5.76.31 12.22 3.03 14.19 8.91 2.7 6.71-1.14 14.91-7.99 17.18 2.6 1.3 4.66 3.52 5.65 6.28 2.13 5.56 2.7 11.6 5.05 17.11-3.29.01-6.56.03-9.83.03-2.1-5.33-2.57-11.17-4.88-16.4-1.96-4.37-7.43-3.46-11.3-3.79.27 6.68.05 13.38.24 20.07-3.26.05-6.52.13-9.77.24.62-16.22.1-32.46.26-48.69m9.27 6.29c.22 5.02.12 10.05.18 15.08 3.83-.09 8.11.62 11.5-1.64 4.24-2.79 4.01-10.21-.57-12.53-3.5-1.51-7.42-1.04-11.11-.91z"/><path d="M822.48 414.04c3.43-.05 6.86-.05 10.3.01 3.74 13.08 8.06 25.99 11.35 39.2 3.3-13.26 7.7-26.23 12.07-39.17 3.23-.13 6.47-.12 9.71-.02-5.32 16.47-11.34 32.71-16.75 49.16-3.68.1-7.36.14-11.04.17-4.63-16.62-10.52-32.87-15.64-49.35z"/><path d="M870.74 414.12c3.14-.13 6.28-.14 9.44-.09-.01 16.45.13 32.89-.1 49.34-3.13-.04-6.25-.04-9.37 0 .01-16.42.03-32.84.03-49.25z"/><path d="M932.4 414.22c9.57-.43 19.15-.15 28.72-.19.25 2.68.34 5.37.41 8.07-6.54-.43-13.1-.12-19.65-.23.04 4.01.06 8.02.08 12.03 6.12-.05 12.23-.02 18.35.01.02 2.67.03 5.36.03 8.04-6.15-.46-12.32-.17-18.47-.25.06 4.57.08 9.13.04 13.69 6.81.17 13.62.1 20.44.09.1 2.56.18 5.13.22 7.71-10.06.29-20.13.02-30.19.19.09-16.39.13-32.77.02-49.16z"/></g></svg>